<svg width="64" height="72" viewBox="0 0 64 72" fill="none" xmlns="http://www.w3.org/2000/svg">
<path d="M64 18.271V43.694C64 53.7844 55.5565 61.9651 45.1421 61.9651H43.2347L33.4941 71.3963C33.1127 71.7659 32.5849 72 32 72C31.4596 72 30.97 71.809 30.5949 71.4887L30.4296 71.3285L30.4232 71.3224L20.7653 61.9651H18.8516C8.44347 61.9651 0 53.7844 0 43.694V18.271C0 8.1807 8.44347 0 18.8579 0H45.1421C55.5565 0 64 8.1807 64 18.271Z" fill="#FFD666"/>
<path d="M14.2698 35.2189C12.4133 35.2189 11.3551 37.2686 12.4323 38.7487C16.6206 44.5139 23.5464 48.2727 31.3718 48.2727C39.1973 48.2727 46.1167 44.5077 50.3051 38.7487C51.3822 37.2686 50.3241 35.2189 48.4675 35.2189H14.2698Z" fill="white"/>
<path d="M25.1435 26.4937H13.9407V21.0196C13.9407 17.9976 16.4499 15.5454 19.5421 15.5454C22.6342 15.5454 25.1435 17.9976 25.1435 21.0196V26.4937Z" fill="white"/>
<path d="M48.8031 26.4937H37.6003V21.0196C37.6003 17.9976 40.1096 15.5454 43.2017 15.5454C46.2939 15.5454 48.8031 17.9976 48.8031 21.0196V26.4937Z" fill="white"/>
</svg>
